<svg width="263" height="29" viewBox="0 0 263 29" fill="none" xmlns="http://www.w3.org/2000/svg">
<g clip-path="url(#clip0_8161_1891)">
<path d="M92.3568 0.25H91.8643V23.1545H92.3568V0.25Z" fill="white"/>
<path d="M82.5669 7.8811C82.6285 7.81953 82.69 7.69639 82.69 7.57325C82.69 7.51168 82.69 7.45011 82.6284 7.38854C82.5669 7.32696 82.5669 7.26539 82.4437 7.26539C82.3822 7.20382 82.3206 7.20382 82.259 7.20382C82.1975 7.20382 82.0743 7.20382 82.0127 7.20382H81.4586V8.7431H81.828V8.18896H81.9512L82.4437 8.7431H82.9363L82.3822 8.06582C82.4437 8.00425 82.5053 7.94268 82.5669 7.8811ZM82.259 7.69639L82.1975 7.75796C82.1975 7.75796 82.1359 7.81953 82.0743 7.81953C82.0127 7.81953 81.9512 7.81953 81.8896 7.81953H81.828V7.38854H81.9512C82.0127 7.38854 82.0127 7.38854 82.0743 7.38854C82.1359 7.38854 82.1359 7.38854 82.1975 7.45011C82.259 7.45011 82.259 7.51168 82.259 7.51168C82.259 7.51168 82.259 7.57325 82.259 7.63482V7.69639ZM83.1826 6.8344C82.5669 6.21868 81.5817 6.21868 81.0276 6.8344C80.4119 7.45011 80.4119 8.43524 81.0276 8.98938C81.6433 9.6051 82.6285 9.6051 83.1826 8.98938C83.4905 8.68153 83.6136 8.3121 83.6136 7.8811C83.6752 7.51168 83.4905 7.14225 83.1826 6.8344ZM82.9363 8.80467C82.5053 9.29724 81.7049 9.29724 81.2739 8.80467C80.7813 8.3121 80.7813 7.57325 81.2739 7.08068C81.7665 6.58811 82.5053 6.58811 82.9979 7.08068C83.4289 7.57325 83.4289 8.3121 82.9363 8.80467ZM68.7134 18.1019L65.0807 7.75796H58.5541L64.896 23.397H72.3461L78.7495 7.75796H72.3461L68.7134 18.1019ZM14.9618 10.5287C15.2696 10.3439 15.6391 10.2208 15.9469 10.0361C18.4713 8.3121 19.1486 4.92569 17.4246 2.40127C16.4395 0.923567 14.7771 0 12.9915 0H0V23.397H10.8981C11.0828 23.397 11.3291 23.397 11.5138 23.397H14.4692C18.0403 23.2739 20.38 20.38 20.38 16.7473C20.1953 13.7304 17.9788 11.1444 14.9618 10.5287ZM6.34183 4.30998H9.48195C9.85138 4.30998 10.2208 4.37155 10.5287 4.49469C11.2059 4.80255 11.7601 5.35669 11.9448 6.09554C12.0064 6.28025 12.0064 6.46497 12.0064 6.64968C12.0064 7.08068 11.9448 7.45011 11.8217 7.81953C11.6369 8.18896 11.4522 8.43524 11.1444 8.68153C11.0212 8.7431 10.8981 8.80467 10.7749 8.86624C10.4055 9.05096 9.97452 9.1741 9.54352 9.1741C9.11253 9.1741 8.92781 9.23567 7.94268 9.23567H6.34183V4.30998ZM12.3758 18.4713C11.7601 18.8408 11.0828 19.087 10.3439 19.087H6.34183V13.2994H10.2824C10.7749 13.2994 11.2675 13.3609 11.7601 13.5456C11.8832 13.6072 11.9448 13.6072 12.0679 13.6688C13.4841 14.3461 14.0382 16.0701 13.2994 17.4862C13.1147 17.8556 12.7452 18.2251 12.3758 18.4713ZM33.8026 7.81953L28.3227 14.8386V0H22.1656V23.397H28.3227L30.9703 20.0106L33.4331 23.397H40.5138L34.5414 15.3928L40.5138 7.75796L33.8026 7.81953ZM56.5223 8.43524C55.2909 7.51168 52.2123 7.08068 49.4416 7.08068C48.3333 7.08068 47.2251 7.20382 46.1168 7.38854C44.7622 7.57325 43.4692 7.94268 42.1762 8.43524L43.9618 12.0064C45.1316 11.3291 46.4246 10.8365 47.7792 10.7134C48.5796 10.5902 49.4416 10.5902 50.242 10.6518C50.7346 10.7134 51.2272 10.8981 51.6582 11.1444C52.2123 11.5138 52.4586 12.1911 52.397 12.8684V12.9299C50.0573 12.9299 47.7176 13.1762 45.4395 13.7304C43.3461 14.3461 41.1295 16.1932 41.1295 18.6561C41.1911 21.4883 43.5308 23.7049 46.3015 23.6433C46.3631 23.6433 47.0403 23.6433 47.0403 23.6433C48.8875 23.5202 50.673 22.966 52.2739 21.9809L53.3206 23.397H58.3079V12.5605C58.4926 10.9597 57.8153 9.35881 56.5223 8.43524ZM52.397 19.1486C51.5966 19.949 50.6115 20.4416 49.5032 20.5032C49.38 20.5032 49.3185 20.5032 49.1953 20.5032C49.1338 20.5032 49.1338 20.5032 49.0722 20.5032C49.0106 20.5032 49.0106 20.5032 49.0106 20.5032C47.9023 20.2569 47.1635 19.2102 47.3482 18.0403C47.5329 17.2399 48.1486 16.5626 49.0106 16.3779H49.0722C49.9342 16.1932 52.397 15.9469 52.397 15.9469V19.1486Z" fill="white"/>
<path d="M162.856 19.9481L164.641 12.3749C164.826 11.5129 164.949 10.9587 165.011 10.774C165.072 10.5893 165.072 10.343 165.072 10.0352C165.072 9.54261 165.072 9.11161 164.949 8.74219H171.907L171.845 10.2199C172.276 9.66575 172.707 9.29633 173.138 9.05004C173.569 8.86533 174.123 8.74219 174.8 8.74219H180.157C181.45 8.74219 182.374 9.05004 182.989 9.60418C183.605 10.2199 183.851 11.0203 183.851 12.1286C183.851 12.498 183.79 12.9906 183.667 13.5447L182.25 19.6403C182.066 20.5023 181.943 21.0564 181.881 21.2411C181.819 21.4258 181.819 21.6721 181.819 21.98C181.819 22.4725 181.819 22.9035 181.943 23.273H173.569C173.938 22.842 174.246 22.3494 174.431 21.7953C174.554 21.4874 174.739 20.9333 174.862 20.1944L176.463 13.2369C176.586 12.8059 176.586 12.498 176.648 12.3749C176.648 12.067 176.586 11.8207 176.401 11.636C176.217 11.4513 175.909 11.3897 175.416 11.3897H173.261C172.769 11.3897 172.461 11.5129 172.214 11.7592C171.968 12.0055 171.783 12.3749 171.66 12.8675L170.059 19.6403C169.875 20.5023 169.752 21.0564 169.69 21.2411C169.628 21.4258 169.628 21.6721 169.628 21.98C169.628 22.4725 169.628 22.9035 169.752 23.273H161.439C161.686 22.9035 161.932 22.5341 162.055 22.1647C162.425 21.549 162.671 20.7486 162.856 19.9481Z" fill="white"/>
<path d="M208.234 1.23438L203.986 19.5826C203.801 20.4446 203.678 20.9987 203.616 21.1834C203.555 21.3681 203.555 21.6144 203.555 21.9223C203.555 22.4148 203.555 22.8458 203.678 23.2153H196.905V21.8607C196.474 22.3533 195.981 22.7227 195.366 22.969C194.873 23.1537 194.319 23.2153 193.58 23.2153H188.531C187.238 23.2153 186.253 22.969 185.576 22.4764C184.899 21.9838 184.591 21.1834 184.652 20.0751C184.652 19.8904 184.652 19.7673 184.714 19.7057C184.714 19.5826 184.775 19.3363 184.837 19.0284L186.376 12.6866C186.684 11.5168 187.238 10.5316 188.1 9.79276C188.962 9.05391 190.009 8.68448 191.179 8.68448H197.028C197.582 8.68448 198.075 8.80762 198.383 8.99234C198.69 9.17705 198.937 9.54648 199.121 10.039L199.799 7.26835C199.922 6.89892 200.476 4.18979 200.599 3.75879C200.722 3.32779 200.722 2.95837 200.784 2.58894C200.784 2.15794 200.722 1.72694 200.599 1.29595H208.234V1.23438ZM193.395 20.5677H194.996C195.612 20.5677 196.104 20.4446 196.351 20.1367C196.659 19.8289 196.843 19.3363 197.028 18.659L198.321 13.2407L198.444 12.8713C198.444 12.7482 198.506 12.625 198.506 12.5019C198.506 11.8246 198.136 11.5168 197.274 11.5168H195.304C194.319 11.5168 193.642 12.0709 193.395 13.1792L192.041 19.0284C191.979 19.2747 191.979 19.4594 191.979 19.521C191.979 19.8904 192.102 20.1983 192.349 20.3214C192.533 20.4446 192.903 20.5677 193.395 20.5677Z" fill="white"/>
<path d="M207.494 19.9482L209.28 12.375C209.465 11.513 209.588 10.9588 209.649 10.7741C209.711 10.5894 209.711 10.3431 209.711 10.0353C209.711 9.54271 209.711 9.11171 209.588 8.74229H217.346L214.76 19.6404C214.636 20.1945 214.513 20.5639 214.452 20.8102C214.329 21.3028 214.267 21.6722 214.267 21.9801C214.267 22.2264 214.267 22.4726 214.267 22.5958C214.267 22.7189 214.329 22.9652 214.452 23.2731H206.078C206.324 22.9036 206.571 22.5342 206.694 22.2264C207.002 21.5491 207.248 20.8102 207.494 19.9482ZM218.454 3.57031L217.592 7.26458H210.45L211.312 3.57031H218.454Z" fill="white"/>
<path d="M218.208 19.9481L219.994 12.3749C220.178 11.5129 220.302 10.9587 220.363 10.774C220.425 10.5893 220.425 10.343 220.425 10.0352C220.425 9.54261 220.425 9.11161 220.302 8.74219H227.198L227.136 10.2199C227.567 9.66575 227.998 9.29633 228.429 9.05004C228.86 8.86533 229.414 8.74219 230.091 8.74219H235.448C236.741 8.74219 237.665 9.05004 238.28 9.60418C238.896 10.2199 239.142 11.0203 239.142 12.1286C239.142 12.498 239.081 12.9906 238.958 13.5447L237.542 19.6403C237.357 20.5023 237.234 21.0564 237.172 21.2411C237.111 21.4258 237.111 21.6721 237.111 21.98C237.111 22.4725 237.111 22.9035 237.234 23.273H228.86C229.229 22.842 229.537 22.3494 229.722 21.7953C229.845 21.4874 230.03 20.9333 230.153 20.1944L231.754 13.2369C231.877 12.8059 231.877 12.498 231.939 12.3749C231.939 12.067 231.877 11.8207 231.692 11.636C231.508 11.4513 231.2 11.3897 230.707 11.3897H228.552C228.06 11.3897 227.752 11.5129 227.505 11.7592C227.259 12.0055 227.074 12.3749 226.951 12.8675L225.35 19.6403C225.166 20.5023 225.043 21.0564 224.981 21.2411C224.919 21.4258 224.919 21.6721 224.919 21.98C224.919 22.4725 224.919 22.9035 225.043 23.273H216.73C216.977 22.9035 217.223 22.5341 217.346 22.1647C217.716 21.549 218.023 20.7486 218.208 19.9481Z" fill="white"/>
<path d="M240.189 19.093L241.667 12.9359C241.975 11.5813 242.591 10.5346 243.576 9.79578C244.499 9.05693 245.669 8.6875 247.024 8.6875H252.935C253.55 8.6875 254.043 8.74907 254.351 8.87221C254.659 8.99536 254.966 9.30321 255.151 9.79578L255.644 8.6875H262.663C262.293 9.1185 262.047 9.5495 261.862 9.98049C261.678 10.4115 261.554 11.0272 261.37 11.7661L258.599 23.2799C258.045 25.558 257.183 27.0973 256.013 27.8977C254.966 28.6365 253.242 28.9444 250.841 28.9444H239.143L239.512 25.3117C239.881 25.6196 240.251 25.8658 240.743 25.989C241.236 26.1121 241.852 26.1121 242.529 26.1121H248.501C249.363 26.1121 249.979 25.989 250.349 25.7427C250.718 25.4964 250.964 25.0654 251.087 24.5729L251.642 22.2331C251.272 22.6641 250.841 22.972 250.225 23.1567C249.856 23.2799 249.302 23.2799 248.625 23.2799H244.376C242.96 23.2799 241.852 23.0951 241.174 22.6641C240.374 22.1716 239.943 21.3096 240.005 20.1397C240.005 19.955 240.005 19.8319 240.005 19.7087C240.066 19.5856 240.066 19.4009 240.189 19.093ZM248.563 20.5707H250.533C251.149 20.5707 251.58 20.4476 251.826 20.2013C252.073 19.955 252.257 19.524 252.442 18.8467L253.735 13.2438C253.858 12.9359 253.858 12.6281 253.92 12.3202C253.92 12.0123 253.858 11.7661 253.673 11.6429C253.489 11.5198 253.181 11.4582 252.627 11.4582H250.41C249.979 11.4582 249.61 11.5813 249.363 11.7661C249.117 11.9508 248.932 12.3818 248.809 12.9359L247.455 18.7852C247.393 19.0314 247.393 19.2777 247.393 19.4009C247.332 20.1397 247.763 20.5707 248.563 20.5707Z" fill="white"/>
<path d="M120.125 8.625H111.813H111.259H109.843H108.488H106.272L105.348 12.3808L105.102 13.4891L103.624 19.4615C103.501 19.9541 103.439 20.4467 103.439 20.8161C103.439 22.4169 104.363 23.2174 106.272 23.2174H119.694L120.741 20.7545C120.125 20.8777 119.571 20.9392 119.079 20.9392H109.535C109.042 20.9392 108.796 20.7545 108.796 20.3235C108.796 20.2004 108.796 20.0772 108.858 19.8925L109.535 17.245H121.603L122.834 12.3808C122.958 11.8883 123.019 11.3957 123.019 11.0263C122.896 9.42542 121.972 8.625 120.125 8.625ZM117.478 11.9498L116.677 14.9668H110.028L110.828 11.9498C111.013 11.2726 111.382 10.9647 111.998 10.9647H116.862C117.355 10.9647 117.601 11.1494 117.601 11.5804C117.539 11.642 117.478 11.7651 117.478 11.9498Z" fill="white"/>
<path d="M159.161 8.625H150.849H150.234H148.817H147.463H145.308L144.384 12.3808L144.138 13.4891L142.66 19.4615C142.537 19.9541 142.476 20.4467 142.476 20.8161C142.476 22.4169 143.399 23.2174 145.308 23.2174H158.73L159.777 20.7545C159.161 20.8777 158.607 20.9392 158.115 20.9392H148.571C148.079 20.9392 147.832 20.7545 147.832 20.3235C147.832 20.2004 147.832 20.0772 147.894 19.8925L148.571 17.245H160.639L161.87 12.3808C161.994 11.8883 162.055 11.3957 162.055 11.0263C161.994 9.42542 161.07 8.625 159.161 8.625ZM156.514 11.9498L155.713 14.9668H149.064L149.864 11.9498C150.049 11.2726 150.418 10.9647 151.034 10.9647H155.898C156.391 10.9647 156.637 11.1494 156.637 11.5804C156.575 11.642 156.575 11.7651 156.514 11.9498Z" fill="white"/>
<path d="M123.512 20.3839L127.268 4.25229C127.391 3.94443 127.391 3.51344 127.452 3.08244C127.452 2.40516 127.391 1.85102 127.145 1.29688H136.319C135.949 1.6663 135.641 2.15887 135.395 2.58987C135.149 3.08244 134.964 3.63658 134.841 4.19072L131.147 19.9529H138.166C139.151 19.9529 140.013 19.7066 140.813 19.2141L139.274 23.2162H122.034C122.28 22.9083 122.527 22.6621 122.65 22.4158C123.081 21.8001 123.327 21.0612 123.512 20.3839Z" fill="white"/>
</g>
<defs>
<clipPath id="clip0_8161_1891">
<rect width="262.601" height="29" fill="white"/>
</clipPath>
</defs>
</svg>
