<svg width="17" height="16" viewBox="0 0 17 16" fill="none" xmlns="http://www.w3.org/2000/svg">
<circle cx="7.75" cy="8" r="7" fill="#1967B2"/>
<path fill-rule="evenodd" clip-rule="evenodd" d="M7.75 1.75C4.29822 1.75 1.5 4.54822 1.5 8C1.5 11.4518 4.29822 14.25 7.75 14.25C11.2018 14.25 14 11.4518 14 8C14 7.58579 14.3358 7.25 14.75 7.25C15.1642 7.25 15.5 7.58579 15.5 8C15.5 12.2802 12.0302 15.75 7.75 15.75C3.46979 15.75 0 12.2802 0 8C0 3.71979 3.46979 0.25 7.75 0.25C9.08594 0.25 10.345 0.588651 11.4438 1.18539C11.8078 1.38307 11.9426 1.8384 11.745 2.2024C11.5473 2.5664 11.092 2.70123 10.728 2.50355C9.8434 2.02316 8.82972 1.75 7.75 1.75Z" fill="white"/>
<path d="M8.51373 12.451C7.63554 12.7874 4.70827 7.72495 2.65918 7.38853C4.41554 6.04283 8.06827 8.95099 8.06827 8.95099C8.06827 8.95099 12.2046 1.63281 16.6592 1.63281C13.4774 4.17827 9.39191 12.1146 8.51373 12.451Z" fill="white"/>
</svg>
